<svg width="18" height="18" viewBox="0 0 18 18" fill="none" xmlns="http://www.w3.org/2000/svg">
<g clip-path="url(#clip0_1506_16443)">
<path d="M8.99905 14.6245C8.47405 14.6245 8.02405 14.3995 7.72405 14.0245L0.299051 5.69952C-0.150949 5.09952 -0.0759487 4.19952 0.524051 3.74952C1.12405 3.29952 1.94905 3.29952 2.39905 3.89952L8.84905 11.2495C8.92405 11.3245 8.99905 11.3245 9.14905 11.2495L15.5991 3.89952C16.1241 3.29952 16.9491 3.22452 17.5491 3.74952C18.1491 4.27452 18.2241 5.09952 17.6991 5.69952C17.6991 5.69952 17.6991 5.69952 17.6241 5.77452L10.2741 14.0995C9.97405 14.3995 9.44905 14.6245 8.99905 14.6245Z" fill="#808D9E"/>
</g>
<defs>
<clipPath id="clip0_1506_16443">
<rect width="18" height="18" fill="white"/>
</clipPath>
</defs>
</svg>
