<svg width="16" height="16" viewBox="0 0 16 16" fill="none" xmlns="http://www.w3.org/2000/svg">
<path fill-rule="evenodd" clip-rule="evenodd" d="M10.9406 1.84444L10.9412 2.34419C12.7777 2.48812 13.9908 3.73949 13.9927 5.65853L14 11.2757C14.0026 13.368 12.6882 14.6554 10.5812 14.6587L5.43459 14.6654C3.3408 14.668 2.00988 13.35 2.00724 11.2517L2 5.70051C1.99737 3.76881 3.16768 2.52077 5.00411 2.35219L5.00346 1.85244C5.0028 1.55925 5.22001 1.3387 5.50963 1.3387C5.79924 1.33803 6.01645 1.55792 6.01711 1.85111L6.01777 2.31754L9.92759 2.31221L9.92693 1.84578C9.92627 1.55259 10.1435 1.3327 10.4331 1.33203C10.7161 1.33137 10.9399 1.55126 10.9406 1.84444ZM3.01432 5.90641L12.9797 5.89308V5.65986C12.9514 4.22725 12.2327 3.47563 10.9426 3.36368L10.9432 3.87676C10.9432 4.16328 10.7201 4.3905 10.437 4.3905C10.1474 4.39117 9.92956 4.16461 9.92956 3.87809L9.9289 3.33836L6.01908 3.34369L6.01974 3.88275C6.01974 4.16994 5.80319 4.3965 5.51357 4.3965C5.22396 4.39716 5.00609 4.17128 5.00609 3.88409L5.00543 3.37101C3.7219 3.49961 3.01168 4.2539 3.01366 5.69918L3.01432 5.90641ZM10.1599 8.93489V8.94222C10.1665 9.24873 10.4166 9.48128 10.7201 9.47462C11.0163 9.46729 11.2526 9.21342 11.246 8.90691C11.2322 8.61372 10.9946 8.37451 10.699 8.37517C10.3962 8.38183 10.1593 8.62838 10.1599 8.93489ZM10.7036 11.9267C10.4008 11.9201 10.1566 11.6675 10.156 11.361C10.1494 11.0545 10.3923 10.8006 10.6951 10.7933H10.7017C11.011 10.7933 11.2618 11.0458 11.2618 11.359C11.2625 11.6722 11.0123 11.9261 10.7036 11.9267ZM7.44808 8.94555C7.46124 9.25207 7.71202 9.49128 8.0148 9.47795C8.311 9.46396 8.5473 9.21075 8.53414 8.90424C8.5269 8.60439 8.28336 8.37117 7.98716 8.37184C7.68438 8.38517 7.44742 8.63904 7.44808 8.94555ZM8.01744 11.8967C7.71466 11.9101 7.46453 11.6709 7.45071 11.3643C7.45071 11.0578 7.68701 10.8046 7.98979 10.7906C8.28599 10.79 8.53019 11.0232 8.53677 11.3224C8.55059 11.6295 8.31363 11.8827 8.01744 11.8967ZM4.73622 8.96887C4.74938 9.27539 5.00016 9.51527 5.30294 9.50127C5.59914 9.48795 5.83544 9.23407 5.82162 8.92756C5.81504 8.62771 5.5715 8.39449 5.27464 8.39516C4.97186 8.40849 4.73556 8.66236 4.73622 8.96887ZM5.30558 11.9001C5.0028 11.9141 4.75267 11.6742 4.73885 11.3677C4.73819 11.0612 4.97515 10.8073 5.27793 10.794C5.57413 10.7933 5.81833 11.0265 5.82491 11.3264C5.83873 11.6329 5.60243 11.8867 5.30558 11.9001Z" fill="#686868"/>
</svg>
