<svg width="16" height="16" viewBox="0 0 16 16" fill="none" xmlns="http://www.w3.org/2000/svg">
<path d="M13.0306 7.53016C12.9609 7.60008 12.8781 7.65556 12.787 7.69341C12.6958 7.73127 12.5981 7.75075 12.4993 7.75075C12.4006 7.75075 12.3029 7.73127 12.2117 7.69341C12.1206 7.65556 12.0378 7.60008 11.9681 7.53016L8.74997 4.31204V13.4995C8.74997 13.6985 8.67095 13.8892 8.5303 14.0299C8.38965 14.1705 8.19888 14.2495 7.99997 14.2495C7.80106 14.2495 7.61029 14.1705 7.46964 14.0299C7.32899 13.8892 7.24997 13.6985 7.24997 13.4995V4.31204L4.0306 7.53016C3.8897 7.67106 3.69861 7.75021 3.49935 7.75021C3.30009 7.75021 3.10899 7.67106 2.9681 7.53016C2.8272 7.38927 2.74805 7.19817 2.74805 6.99891C2.74805 6.79965 2.8272 6.60856 2.9681 6.46766L7.4681 1.96766C7.53778 1.89774 7.62057 1.84226 7.71173 1.80441C7.8029 1.76656 7.90064 1.74707 7.99935 1.74707C8.09806 1.74707 8.1958 1.76656 8.28696 1.80441C8.37813 1.84226 8.46092 1.89774 8.5306 1.96766L13.0306 6.46766C13.1005 6.53734 13.156 6.62013 13.1938 6.7113C13.2317 6.80246 13.2512 6.9002 13.2512 6.99891C13.2512 7.09762 13.2317 7.19536 13.1938 7.28653C13.156 7.37769 13.1005 7.46048 13.0306 7.53016Z" fill="#048848"/>
</svg>
