<svg width="88" height="30" viewBox="0 0 88 30" fill="none" xmlns="http://www.w3.org/2000/svg">
<path fill-rule="evenodd" clip-rule="evenodd" d="M45.4612 10.3358C46.3005 10.6481 47.0326 11.1106 47.6635 11.7353C48.2885 12.3599 48.7825 13.1467 49.1456 14.0957C49.5087 15.0448 49.6932 16.1619 49.6932 17.4413V28.2767C49.6932 28.3607 49.6278 28.4269 49.5444 28.4269H45.1338C45.0504 28.4269 44.985 28.3607 44.985 28.2767V17.9938C44.985 17.225 44.8957 16.5704 44.7112 16.0358C44.5267 15.5012 44.2767 15.0688 43.9612 14.7384C43.6458 14.402 43.2826 14.1618 42.872 14.0056C42.4613 13.8495 42.0327 13.7714 41.5863 13.7714C40.9673 13.7714 40.3661 13.9216 39.7827 14.2099C39.1995 14.4982 38.6757 14.9126 38.2054 15.4472V28.2767C38.2054 28.3607 38.1399 28.4269 38.0566 28.4269H33.6461C33.5627 28.4269 33.4972 28.3607 33.4972 28.2767V9.05046C33.4853 9.05046 33.527 6.04728 33.527 6.04728C33.527 5.56676 36.3781 2.32336 37.1043 1.5065C37.2412 1.35634 37.4554 1.12209 37.8185 1.2242C38.2352 1.34432 38.2411 1.80681 38.2411 2.20323L38.2114 11.3869C38.8363 10.9004 39.5268 10.522 40.2827 10.2637C41.0387 10.0054 41.866 9.8733 42.7589 9.8733C43.7172 9.8733 44.6219 10.0295 45.4612 10.3358ZM66.3056 22.1623C66.3889 22.0721 66.5381 22.1082 66.5738 22.2223C66.9401 23.3388 67.194 24.0778 67.4116 24.7128L67.4122 24.714C67.5341 25.0691 67.6453 25.3919 67.7582 25.73C67.788 25.8261 67.7582 25.9282 67.681 25.9943C66.0975 27.2977 63.3297 28.7992 61.1392 28.7992C59.2346 28.7992 57.7763 28.2827 56.7644 27.2496C55.7525 26.2165 55.2466 24.6428 55.2466 22.5286V13.9816H52.8717C52.7824 13.9816 52.705 13.9096 52.705 13.8134V10.4138C52.705 10.3238 52.7764 10.2457 52.8717 10.2457H55.2466V9.05046V6.04728C55.2466 5.56676 58.0977 2.32336 58.8239 1.5065C58.9608 1.35634 59.1751 1.12209 59.538 1.2242C59.9548 1.34432 59.9607 1.80681 59.9607 2.20323V8.94234V10.2517H64.8061C64.8953 10.2517 64.9726 10.3238 64.9726 10.4199V13.8194C64.9726 13.9096 64.9012 13.9876 64.8061 13.9876H59.9607V22.1142C59.9607 23.0031 60.1569 23.6638 60.5559 24.0963C60.9549 24.5287 61.5858 25.0032 62.3177 24.745C63.5735 24.3065 64.9785 23.5317 66.3056 22.1623ZM86.4422 10.2517H81.9304C81.6926 11.3809 81.4304 12.5221 81.1509 13.6873C80.8649 14.8525 80.5557 16.0118 80.2103 17.177C79.8648 18.3422 79.4961 19.5014 79.1031 20.6666C78.7041 21.8319 78.2939 22.9731 77.8711 24.1023C77.4365 22.9731 77.0197 21.8319 76.6213 20.6666C76.2223 19.5014 75.8471 18.3422 75.5023 17.177C75.1568 16.0118 74.8411 14.8525 74.5616 13.6873C74.2875 12.5701 74.0437 11.465 73.8118 10.3778C73.794 10.3058 73.7339 10.2517 73.6566 10.2517H69.1508C69.0497 10.2517 68.9724 10.3478 68.9962 10.4499C69.6568 13.4351 70.4785 16.4082 71.4661 19.3693C72.4603 22.3664 73.6269 25.3576 74.9606 28.3427L74.9612 28.3432C75.0081 28.373 75.0557 28.403 75.0973 28.4329H80.4957C80.5557 28.4329 80.6092 28.3968 80.633 28.3427C81.9601 25.3576 83.1148 22.3664 84.109 19.3693C85.0913 16.4082 85.9184 13.4351 86.6087 10.4499C86.6206 10.3478 86.5433 10.2517 86.4422 10.2517ZM9.71808 13.8555C9.71808 8.02938 13.3252 5.84907 16.9322 5.84907C24.1463 5.84907 24.1463 12.4019 24.1463 12.4019V13.5492C23.6165 13.1467 23.0391 12.8344 22.4023 12.6182C21.7356 12.3899 21.0094 12.2698 20.2179 12.2698C19.3667 12.2698 18.575 12.408 17.831 12.6782C17.0929 12.9485 16.4441 13.363 15.8906 13.9096C15.337 14.4561 14.8965 15.1529 14.5811 15.9877C14.2596 16.8226 14.0989 17.8076 14.0989 18.9368V28.3908C14.0989 28.3933 14.0999 28.3958 14.1012 28.3987C14.1029 28.4028 14.1049 28.4078 14.1049 28.4148H8.27768C8.27768 28.4148 1.78381 28.4148 1.78381 21.1352C1.78381 17.4953 3.95044 13.8555 9.71808 13.8555ZM18.694 28.3968V20.1081C18.694 19.4774 18.7654 18.9488 18.9143 18.5104C19.0631 18.0779 19.2655 17.7236 19.5214 17.4533C19.7773 17.183 20.075 16.9848 20.4082 16.8587C20.7416 16.7325 21.0927 16.6724 21.4559 16.6724C21.9618 16.6724 22.4499 16.7926 22.9261 17.0269C23.3606 17.243 23.7534 17.5434 24.1046 17.9278C24.1224 17.9458 24.1344 17.9758 24.1344 18.0059V28.3067C24.1344 28.3668 24.0868 28.4208 24.0212 28.4208H18.6762C18.694 28.4088 18.694 28.4028 18.694 28.3968Z" fill="black"/>
</svg>
